<svg xmlns="http://www.w3.org/2000/svg" viewBox="0 0 1036 302" font-family="-apple-system,'PingFang SC','Microsoft YaHei',sans-serif">
<rect width="1036" height="302" fill="#0f1115" rx="10"/>
<rect x="40" y="24" width="236" height="82" rx="12" fill="#3d7a4f" fill-opacity="0.08" stroke="#3d7a4f" stroke-width="1"/>
<text x="52" y="48" fill="#3d7a4f" font-size="13" font-weight="700">01 底座</text>
<text x="52" y="64" fill="#8b95a8" font-size="9.5">m1 · link=auto</text>
<rect x="372" y="24" width="236" height="262" rx="12" fill="#3d5a80" fill-opacity="0.08" stroke="#3d5a80" stroke-width="1"/>
<text x="384" y="48" fill="#3d5a80" font-size="13" font-weight="700">02 编剧</text>
<text x="384" y="64" fill="#8b95a8" font-size="9.5">m2 · link=auto · caps 2/12 · iterate</text>
<rect x="386" y="75" width="208" height="26" rx="7" fill="#161a22" stroke="#2a2f3a"/>
<circle cx="398" cy="88" r="3.2" fill="#3d5a80"/><text x="408" y="92" fill="#c9ceda" font-size="10.5">structure-design</text>
<rect x="386" y="109" width="208" height="26" rx="7" fill="#161a22" stroke="#2a2f3a"/>
<circle cx="398" cy="122" r="3.2" fill="#3d5a80"/><text x="408" y="126" fill="#c9ceda" font-size="10.5">plot-choreographer</text>
<rect x="386" y="143" width="208" height="26" rx="7" fill="#161a22" stroke="#2a2f3a"/>
<circle cx="398" cy="156" r="3.2" fill="#3d5a80"/><text x="408" y="160" fill="#c9ceda" font-size="10.5">scene-breakdown</text>
<rect x="386" y="177" width="208" height="26" rx="7" fill="#161a22" stroke="#2a2f3a"/>
<circle cx="398" cy="190" r="3.2" fill="#3d5a80"/><text x="408" y="194" fill="#c9ceda" font-size="10.5">script-forge</text>
<text x="386" y="228" fill="#3d5a80" font-size="10">＋ 短剧节拍 / 红队评审</text>
<rect x="704" y="24" width="236" height="82" rx="12" fill="#e8b33d" fill-opacity="0.08" stroke="#e8b33d" stroke-width="1"/>
<text x="716" y="48" fill="#e8b33d" font-size="13" font-weight="700">03 底座</text>
<text x="716" y="64" fill="#8b95a8" font-size="9.5">m3 · link=auto</text>
<path d="M280,155.0 L368,155.0" fill="none" stroke="#5a6478" stroke-width="1.3" stroke-dasharray="6,5"/>
<rect x="298.0" y="144.0" width="52" height="22" rx="11" fill="#0f1115" stroke="#5a6478"/>
<text x="324.0" y="159.0" fill="#5a6478" font-size="9.5" text-anchor="middle">自动</text>
<path d="M612,65.0 L700,65.0" fill="none" stroke="#5a6478" stroke-width="1.3" stroke-dasharray="6,5"/>
<rect x="630.0" y="54.0" width="52" height="22" rx="11" fill="#0f1115" stroke="#5a6478"/>
<text x="656.0" y="69.0" fill="#5a6478" font-size="9.5" text-anchor="middle">自动</text>
</svg>