<svg xmlns="http://www.w3.org/2000/svg" viewBox="0 0 328 876" font-family="-apple-system,'PingFang SC','Microsoft YaHei',sans-serif">
<defs><marker id="arw" markerWidth="9" markerHeight="8" refX="8" refY="4" orient="auto">
<path d="M0,0 L9,4 L0,8 z" fill="#5a6478"/></marker></defs>
<rect width="328" height="876" fill="#0f1115" rx="10"/>
<rect x="40" y="24" width="200" height="844" rx="12" fill="#5a6478" fill-opacity="0.08" stroke="#5a6478" stroke-width="1"/>
<text x="52" y="48" fill="#5a6478" font-size="13" font-weight="700">ORPHAN 未归段</text>
<rect x="54" y="61" width="172" height="44" rx="8" fill="#1d3323" stroke="#3d7a4f" stroke-width="1.2"/>
<text x="140.0" y="78" fill="#8fd4a3" font-size="11" font-weight="700" text-anchor="middle">分场卡（编剧流产物·已验…</text>
<rect x="54" y="139" width="172" height="44" rx="8" fill="#16233a" stroke="#3d5a80" stroke-width="1.2"/>
<text x="140.0" y="156" fill="#a8c4e8" font-size="11" font-weight="700" text-anchor="middle">台账切片</text>
<text x="140.0" y="171" fill="#667089" font-size="8.5" text-anchor="middle">continuity_slice</text>
<rect x="54" y="217" width="172" height="44" rx="8" fill="#2a2313" stroke="#e8b33d" stroke-width="1.2"/>
<text x="140.0" y="234" fill="#e8b33d" font-size="11" font-weight="700" text-anchor="middle">分场锻拍</text>
<text x="140.0" y="249" fill="#667089" font-size="8.5" text-anchor="middle">scene-breakdown</text>
<rect x="54" y="295" width="172" height="44" rx="8" fill="#2a2313" stroke="#e8b33d" stroke-width="1.2"/>
<text x="140.0" y="312" fill="#e8b33d" font-size="11" font-weight="700" text-anchor="middle">台词师</text>
<text x="140.0" y="327" fill="#667089" font-size="8.5" text-anchor="middle">layer-voices</text>
<rect x="54" y="373" width="172" height="44" rx="8" fill="#2a2313" stroke="#e8b33d" stroke-width="1.2"/>
<text x="140.0" y="390" fill="#e8b33d" font-size="11" font-weight="700" text-anchor="middle">场景师</text>
<text x="140.0" y="405" fill="#667089" font-size="8.5" text-anchor="middle">layer-scenes</text>
<rect x="54" y="451" width="172" height="44" rx="8" fill="#2a2313" stroke="#e8b33d" stroke-width="1.2"/>
<text x="140.0" y="468" fill="#e8b33d" font-size="11" font-weight="700" text-anchor="middle">设定官</text>
<text x="140.0" y="483" fill="#667089" font-size="8.5" text-anchor="middle">layer-canon</text>
<rect x="54" y="529" width="172" height="44" rx="8" fill="#2a2313" stroke="#e8b33d" stroke-width="1.2"/>
<text x="140.0" y="546" fill="#e8b33d" font-size="11" font-weight="700" text-anchor="middle">成文师·逐段盖章</text>
<text x="140.0" y="561" fill="#667089" font-size="8.5" text-anchor="middle">prose-assembler</text>
<rect x="54" y="607" width="172" height="44" rx="8" fill="#16233a" stroke="#3d5a80" stroke-width="1.2"/>
<text x="140.0" y="624" fill="#a8c4e8" font-size="11" font-weight="700" text-anchor="middle">硬断言闸</text>
<text x="140.0" y="639" fill="#667089" font-size="8.5" text-anchor="middle">check_aesthetic…</text>
<rect x="54" y="685" width="172" height="44" rx="8" fill="#2a2313" stroke="#e8b33d" stroke-width="1.2"/>
<text x="140.0" y="702" fill="#e8b33d" font-size="11" font-weight="700" text-anchor="middle">收尾薄修（novel-d…</text>
<text x="140.0" y="717" fill="#667089" font-size="8.5" text-anchor="middle">novel-deai</text>
<rect x="54" y="763" width="172" height="44" rx="8" fill="#2a1616" stroke="#a5433a" stroke-width="1.2"/>
<text x="140.0" y="780" fill="#e8a49c" font-size="11" font-weight="700" text-anchor="middle">批次人工验收</text>
<path d="M240,87.0 C190.0,87.0 190.0,115.5 140.0,115.5" fill="none" stroke="#5a6478" stroke-width="1.3" marker-end="url(#arw)"><title>e-1: src → ledger</title></path>
<path d="M240,165.0 C190.0,165.0 190.0,154.5 140.0,154.5" fill="none" stroke="#5a6478" stroke-width="1.3" marker-end="url(#arw)"><title>e-2: ledger → beats</title></path>
<path d="M240,243.0 C190.0,243.0 190.0,193.5 140.0,193.5" fill="none" stroke="#5a6478" stroke-width="1.3" marker-end="url(#arw)"><title>e-3: beats → voices</title></path>
<path d="M240,243.0 C190.0,243.0 190.0,232.5 140.0,232.5" fill="none" stroke="#5a6478" stroke-width="1.3" marker-end="url(#arw)"><title>e-4: beats → textures</title></path>
<path d="M240,243.0 C190.0,243.0 190.0,271.5 140.0,271.5" fill="none" stroke="#5a6478" stroke-width="1.3" marker-end="url(#arw)"><title>e-5: beats → canon</title></path>
<path d="M240,321.0 C190.0,321.0 190.0,310.5 140.0,310.5" fill="none" stroke="#5a6478" stroke-width="1.3" marker-end="url(#arw)"><title>e-6: voices → assemble</title></path>
<path d="M240,399.0 C190.0,399.0 190.0,310.5 140.0,310.5" fill="none" stroke="#5a6478" stroke-width="1.3" marker-end="url(#arw)"><title>e-7: textures → assemble</title></path>
<path d="M240,477.0 C190.0,477.0 190.0,310.5 140.0,310.5" fill="none" stroke="#5a6478" stroke-width="1.3" marker-end="url(#arw)"><title>e-8: canon → assemble</title></path>
<path d="M240,555.0 C190.0,555.0 190.0,349.5 140.0,349.5" fill="none" stroke="#5a6478" stroke-width="1.3" marker-end="url(#arw)"><title>e-9: assemble → audit</title></path>
<path d="M240,633.0 C190.0,633.0 190.0,388.5 140.0,388.5" fill="none" stroke="#5a6478" stroke-width="1.3" marker-end="url(#arw)"><title>e-10: audit → polish</title></path>
<path d="M240,711.0 C190.0,711.0 190.0,427.5 140.0,427.5" fill="none" stroke="#5a6478" stroke-width="1.3" marker-end="url(#arw)"><title>e-11: polish → fin</title></path>
</svg>