<svg xmlns="http://www.w3.org/2000/svg" viewBox="0 0 2148 558" font-family="-apple-system,'PingFang SC','Microsoft YaHei',sans-serif">
<defs><marker id="arw" markerWidth="9" markerHeight="8" refX="8" refY="4" orient="auto">
<path d="M0,0 L9,4 L0,8 z" fill="#5a6478"/></marker></defs>
<rect width="2148" height="558" fill="#0f1115" rx="10"/>
<path d="M250,244.0 C287.0,244.0 287.0,244.0 324,244.0" fill="none" stroke="#5a6478" stroke-width="1.4" marker-end="url(#arw)"><title>e-pre: src → pre ｜ core.kb_load</title></path>
<text x="287.0" y="240.0" fill="#7a8496" font-size="9" text-anchor="middle">core.kb_load</text>
<path d="M500,244.0 C537.0,244.0 537.0,244.0 574,244.0" fill="none" stroke="#5a6478" stroke-width="1.4" marker-end="url(#arw)"><title>e-read: pre → read ｜ skill.deconstruct-book</title></path>
<text x="537.0" y="240.0" fill="#7a8496" font-size="9" text-anchor="middle">skill.deconstruct-bo</text>
<path d="M750,244.0 C787.0,244.0 787.0,244.0 824,244.0" fill="none" stroke="#5a6478" stroke-width="1.4" marker-end="url(#arw)"><title>e-refine: read → refine ｜ skill.deconstruct-book</title></path>
<text x="787.0" y="240.0" fill="#7a8496" font-size="9" text-anchor="middle">skill.deconstruct-bo</text>
<path d="M1000,244.0 C1037.0,244.0 1037.0,170.0 1074,170.0" fill="none" stroke="#5a6478" stroke-width="1.4" marker-end="url(#arw)"><title>e-chars: refine → chars ｜ skill.deconstruct-book</title></path>
<text x="1037.0" y="203.0" fill="#7a8496" font-size="9" text-anchor="middle">skill.deconstruct-bo</text>
<path d="M1000,244.0 C1037.0,244.0 1037.0,318.0 1074,318.0" fill="none" stroke="#5a6478" stroke-width="1.4" marker-end="url(#arw)"><title>e-style: refine → style ｜ skill.deconstruct-book</title></path>
<text x="1037.0" y="277.0" fill="#7a8496" font-size="9" text-anchor="middle">skill.deconstruct-bo</text>
<path d="M1250,170.0 C1287.0,170.0 1287.0,244.0 1324,244.0" fill="none" stroke="#5a6478" stroke-width="1.4" marker-end="url(#arw)"><title>e-dedup: chars → dedup ｜ core.kb_search</title></path>
<text x="1287.0" y="203.0" fill="#7a8496" font-size="9" text-anchor="middle">core.kb_search</text>
<path d="M1250,318.0 C1287.0,318.0 1287.0,244.0 1324,244.0" fill="none" stroke="#5a6478" stroke-width="1.4" marker-end="url(#arw)"><title>e-dedup2: style → dedup ｜ core.kb_search</title></path>
<text x="1287.0" y="277.0" fill="#7a8496" font-size="9" text-anchor="middle">core.kb_search</text>
<path d="M1500,244.0 C1537.0,244.0 1537.0,244.0 1574,244.0" fill="none" stroke="#5a6478" stroke-width="1.4" marker-end="url(#arw)"><title>e-promote: dedup → promote ｜ core.check_aesthetic_asserts</title></path>
<text x="1537.0" y="240.0" fill="#7a8496" font-size="9" text-anchor="middle">core.check_aesthetic</text>
<path d="M1750,244.0 C1787.0,244.0 1787.0,244.0 1824,244.0" fill="none" stroke="#5a6478" stroke-width="1.4" marker-end="url(#arw)"><title>e-fin: promote → fin ｜ sm.review</title></path>
<text x="1787.0" y="240.0" fill="#7a8496" font-size="9" text-anchor="middle">sm.review</text>
<g><title>src ｜ novel-txt ｜ 参考作品文本 ｜ skill=- minitool=-</title>
<rect x="74" y="218.0" width="176" height="52" rx="9" fill="#1d3323" stroke="#3d7a4f" stroke-width="1.4"/>
<text x="162.0" y="239.0" fill="#8fd4a3" font-size="12.5" font-weight="700" text-anchor="middle">src</text>
<text x="162.0" y="255.0" fill="#b8bdc7" font-size="10.5" text-anchor="middle">参考作品文本</text>
<text x="162.0" y="267.0" fill="#667089" font-size="8.5" text-anchor="middle">素材</text>
</g>
<g><title>pre ｜ core ｜ 读前识别与样本检查 ｜ skill=- minitool=kb_load</title>
<rect x="324" y="218.0" width="176" height="52" rx="9" fill="#16233a" stroke="#3d5a80" stroke-width="1.4"/>
<text x="412.0" y="239.0" fill="#a8c4e8" font-size="12.5" font-weight="700" text-anchor="middle">pre</text>
<text x="412.0" y="255.0" fill="#b8bdc7" font-size="10.5" text-anchor="middle">读前识别与样本检查</text>
<text x="412.0" y="267.0" fill="#667089" font-size="8.5" text-anchor="middle">kb_load</text>
</g>
<g><title>read ｜ agent ｜ 通读与设计层拆解 ｜ skill=deconstruct-book minitool=-</title>
<rect x="574" y="218.0" width="176" height="52" rx="9" fill="#2a2313" stroke="#e8b33d" stroke-width="1.4"/>
<text x="662.0" y="239.0" fill="#e8b33d" font-size="12.5" font-weight="700" text-anchor="middle">read</text>
<text x="662.0" y="255.0" fill="#b8bdc7" font-size="10.5" text-anchor="middle">通读与设计层拆解</text>
<text x="662.0" y="267.0" fill="#667089" font-size="8.5" text-anchor="middle">deconstruct-book</text>
</g>
<g><title>refine ｜ agent ｜ 细化层拆解 ｜ skill=deconstruct-book minitool=-</title>
<rect x="824" y="218.0" width="176" height="52" rx="9" fill="#2a2313" stroke="#e8b33d" stroke-width="1.4"/>
<text x="912.0" y="239.0" fill="#e8b33d" font-size="12.5" font-weight="700" text-anchor="middle">refine</text>
<text x="912.0" y="255.0" fill="#b8bdc7" font-size="10.5" text-anchor="middle">细化层拆解</text>
<text x="912.0" y="267.0" fill="#667089" font-size="8.5" text-anchor="middle">deconstruct-book</text>
</g>
<g><title>chars ｜ agent ｜ 人物拆解 ｜ skill=deconstruct-book minitool=-</title>
<rect x="1074" y="144.0" width="176" height="52" rx="9" fill="#2a2313" stroke="#e8b33d" stroke-width="1.4"/>
<text x="1162.0" y="165.0" fill="#e8b33d" font-size="12.5" font-weight="700" text-anchor="middle">chars</text>
<text x="1162.0" y="181.0" fill="#b8bdc7" font-size="10.5" text-anchor="middle">人物拆解</text>
<text x="1162.0" y="193.0" fill="#667089" font-size="8.5" text-anchor="middle">deconstruct-book</text>
</g>
<g><title>style ｜ agent ｜ 文风拆解 ｜ skill=deconstruct-book minitool=-</title>
<rect x="1074" y="292.0" width="176" height="52" rx="9" fill="#2a2313" stroke="#e8b33d" stroke-width="1.4"/>
<text x="1162.0" y="313.0" fill="#e8b33d" font-size="12.5" font-weight="700" text-anchor="middle">style</text>
<text x="1162.0" y="329.0" fill="#b8bdc7" font-size="10.5" text-anchor="middle">文风拆解</text>
<text x="1162.0" y="341.0" fill="#667089" font-size="8.5" text-anchor="middle">deconstruct-book</text>
</g>
<g><title>dedup ｜ core ｜ 查重与相性 ｜ skill=- minitool=kb_search</title>
<rect x="1324" y="218.0" width="176" height="52" rx="9" fill="#16233a" stroke="#3d5a80" stroke-width="1.4"/>
<text x="1412.0" y="239.0" fill="#a8c4e8" font-size="12.5" font-weight="700" text-anchor="middle">dedup</text>
<text x="1412.0" y="255.0" fill="#b8bdc7" font-size="10.5" text-anchor="middle">查重与相性</text>
<text x="1412.0" y="267.0" fill="#667089" font-size="8.5" text-anchor="middle">kb_search</text>
</g>
<g><title>promote ｜ core ｜ KB 候选条目组装 ｜ skill=- minitool=check_aesthetic_asserts</title>
<rect x="1574" y="218.0" width="176" height="52" rx="9" fill="#16233a" stroke="#3d5a80" stroke-width="2.6"/>
<circle cx="1741" cy="227.0" r="5" fill="none" stroke="#3d5a80" stroke-width="1.2"/><circle cx="1741" cy="227.0" r="1.8" fill="#3d5a80"/>
<text x="1662.0" y="239.0" fill="#a8c4e8" font-size="12.5" font-weight="700" text-anchor="middle">promote</text>
<text x="1662.0" y="255.0" fill="#b8bdc7" font-size="10.5" text-anchor="middle">KB 候选条目组装</text>
<text x="1662.0" y="267.0" fill="#667089" font-size="8.5" text-anchor="middle">check_aesthetic_a…</text>
</g>
<g><title>fin ｜ srd ｜ 人工确认入库 ｜ skill=- minitool=-</title>
<rect x="1824" y="218.0" width="176" height="52" rx="9" fill="#2a1616" stroke="#a5433a" stroke-width="1.4"/>
<text x="1912.0" y="239.0" fill="#e8a49c" font-size="12.5" font-weight="700" text-anchor="middle">fin</text>
<text x="1912.0" y="255.0" fill="#b8bdc7" font-size="10.5" text-anchor="middle">人工确认入库</text>
<text x="1912.0" y="267.0" fill="#667089" font-size="8.5" text-anchor="middle">验收门</text>
</g>
</svg>